<svg width="141" height="134" xmlns="http://www.w3.org/2000/svg">

 <g>
  <title>Layer 1</title>
  <path id="svg_3" d="m140.93184,51.15384l-53.84361,0l-16.62082,-51.15192l-2.33378,7.14842l-14.30665,44.0133l-53.8289,-0.00981l43.54753,31.6433l-16.65024,51.18624l43.55733,-31.6433l43.56714,31.658l-16.65514,-51.20095l43.56714,-31.6433zm-64.70843,43.25335l-5.7609,-4.18217l-5.7609,4.18707l-19.1311,13.89481l7.30532,-22.47488l2.2063,-6.7758l-5.77071,-4.19198l-19.1213,-13.89481l30.76568,0l2.2063,-6.7709l7.30041,-22.47488l7.30041,22.46017l2.2014,6.7709l30.79509,0l-19.15071,13.90461l-5.77561,4.18707l2.2014,6.78561l7.32002,22.47488l-19.1311,-13.89971z" stroke="#000" fill="#666666"/>
 </g>
</svg>
